<svg xmlns="http://www.w3.org/2000/svg" xmlns:xlink="http://www.w3.org/1999/xlink" version="1.1" x="0px" y="0px" viewBox="0 0 32 40" enable-background="new 0 0 32 32" xml:space="preserve"><path d="M7.784,24.051c-1.85,0-3.355,1.504-3.355,3.354s1.506,3.354,3.355,3.354s3.354-1.504,3.354-3.354S9.633,24.051,7.784,24.051  z M7.784,28.66c-0.693,0-1.258-0.563-1.258-1.256c0-0.691,0.564-1.256,1.258-1.256c0.691,0,1.256,0.564,1.256,1.256  C9.04,28.098,8.475,28.66,7.784,28.66z"/><path d="M24.028,24.051c-1.85,0-3.354,1.504-3.354,3.354s1.505,3.354,3.354,3.354s3.354-1.504,3.354-3.354  S25.877,24.051,24.028,24.051z M24.028,28.66c-0.693,0-1.256-0.563-1.256-1.256c0-0.691,0.563-1.256,1.256-1.256  s1.256,0.564,1.256,1.256C25.284,28.098,24.721,28.66,24.028,28.66z"/><path d="M13.472,5.85V1.287c-1.062,0.209-1.864,1.143-1.864,2.266v0.031C11.608,4.707,12.411,5.641,13.472,5.85z"/><path d="M22.776,3.584V3.553c0-1.123-0.802-2.057-1.863-2.266V5.85C21.974,5.641,22.776,4.707,22.776,3.584z"/><rect x="14.772" y="1.242" width="4.841" height="4.652"/><rect x="14.772" y="7.195" width="4.841" height="3.559"/><path d="M12.079,10.754h1.394V7.195h-1.394c-0.369,0-0.67,0.299-0.67,0.668v2.221C11.409,10.453,11.709,10.754,12.079,10.754z"/><path d="M22.975,10.084V7.863c0-0.369-0.3-0.668-0.669-0.668h-1.394v3.559h1.394C22.675,10.754,22.975,10.453,22.975,10.084z"/><path d="M27.981,22.865c0,0,0-0.563,0-1.158s0.406-0.92,0.922-0.92c0.217,0,1.182,0,2.221,0c-0.055-1.377-1.189-2.479-2.59-2.479  h-0.781h-1.396l-1.062-4.633c-0.187-0.91-1.062-1.623-1.991-1.623H11.172c-0.885,0-1.805,0.617-2.128,1.408l-2.216,4.848h-2.58  H3.467c-1.401,0-2.535,1.102-2.59,2.479c1.039,0,2.003,0,2.221,0c0.515,0,0.921,0.324,0.921,0.92s0,1.158,0,1.158H0.867v2.691  c0,1.33,1.019,2.412,2.321,2.551c-0.035-0.23-0.06-0.463-0.06-0.703c0-2.566,2.089-4.652,4.655-4.652s4.654,2.086,4.654,4.652  c0,0.25-0.025,0.492-0.064,0.732h7.063c-0.038-0.24-0.063-0.482-0.063-0.732c0-2.566,2.088-4.652,4.654-4.652  s4.654,2.086,4.654,4.652c0,0.246-0.025,0.486-0.063,0.723c1.395-0.045,2.514-1.176,2.514-2.57v-2.691H27.981z M15.803,18.309H8.436  l1.95-4.266c0.108-0.266,0.499-0.527,0.786-0.527h4.631V18.309z M17.266,18.309v-4.793h6.037c0.235,0,0.512,0.225,0.563,0.471  l0.99,4.322H17.266z"/><text x="0" y="47" fill="#000000" font-size="5px" font-weight="bold" font-family="'Helvetica Neue', Helvetica, Arial-Unicode, Arial, Sans-serif">Created by Seo Tai Tzu</text><text x="0" y="52" fill="#000000" font-size="5px" font-weight="bold" font-family="'Helvetica Neue', Helvetica, Arial-Unicode, Arial, Sans-serif">from the Noun Project</text></svg>