<?xml version="1.0" encoding="utf-8"?>
<!-- Generator: Adobe Illustrator 24.0.1, SVG Export Plug-In . SVG Version: 6.00 Build 0)  -->
<svg version="1.1" id="Laag_1" xmlns="http://www.w3.org/2000/svg" xmlns:xlink="http://www.w3.org/1999/xlink" x="0px" y="0px"
	 viewBox="0 0 32 40" style="enable-background:new 0 0 32 40;" xml:space="preserve">
<path d="M7.8,24.1c-1.8,0-3.4,1.5-3.4,3.4s1.5,3.4,3.4,3.4s3.4-1.5,3.4-3.4S9.6,24.1,7.8,24.1z M7.8,28.7c-0.7,0-1.3-0.6-1.3-1.3
	c0-0.7,0.6-1.3,1.3-1.3c0.7,0,1.3,0.6,1.3,1.3C9,28.1,8.5,28.7,7.8,28.7z"/>
<path d="M24,24.1c-1.9,0-3.4,1.5-3.4,3.4s1.5,3.4,3.4,3.4s3.4-1.5,3.4-3.4S25.9,24.1,24,24.1z M24,28.7c-0.7,0-1.3-0.6-1.3-1.3
	c0-0.7,0.6-1.3,1.3-1.3s1.3,0.6,1.3,1.3C25.3,28.1,24.7,28.7,24,28.7z"/>
<path d="M13.5,5.8V1.3c-1.1,0.2-1.9,1.1-1.9,2.3v0C11.6,4.7,12.4,5.6,13.5,5.8z"/>
<path d="M22.8,3.6L22.8,3.6c0-1.2-0.8-2.1-1.9-2.3v4.6C22,5.6,22.8,4.7,22.8,3.6z"/>
<rect x="14.8" y="1.2" width="4.8" height="4.7"/>
<rect x="14.8" y="7.2" width="4.8" height="3.6"/>
<path d="M12.1,10.8h1.4V7.2h-1.4c-0.4,0-0.7,0.3-0.7,0.7v2.2C11.4,10.5,11.7,10.8,12.1,10.8z"/>
<path d="M23,10.1V7.9c0-0.4-0.3-0.7-0.7-0.7h-1.4v3.6h1.4C22.7,10.8,23,10.5,23,10.1z"/>
<path d="M28,22.9c0,0,0-0.6,0-1.2s0.4-0.9,0.9-0.9c0.2,0,1.2,0,2.2,0c-0.1-1.4-1.2-2.5-2.6-2.5h-0.8h-1.4l-1.1-4.6
	c-0.2-0.9-1.1-1.6-2-1.6H11.2c-0.9,0-1.8,0.6-2.1,1.4l-2.2,4.8H4.2H3.5c-1.4,0-2.5,1.1-2.6,2.5c1,0,2,0,2.2,0c0.5,0,0.9,0.3,0.9,0.9
	s0,1.2,0,1.2H0.9v2.7c0,1.3,1,2.4,2.3,2.6c0-0.2-0.1-0.5-0.1-0.7c0-2.6,2.1-4.7,4.7-4.7s4.7,2.1,4.7,4.7c0,0.3,0,0.5-0.1,0.7h7.1
	c0-0.2-0.1-0.5-0.1-0.7c0-2.6,2.1-4.7,4.7-4.7s4.7,2.1,4.7,4.7c0,0.2,0,0.5-0.1,0.7c1.4,0,2.5-1.2,2.5-2.6v-2.7L28,22.9L28,22.9z
	 M15.8,18.3H8.4l1.9-4.3c0.1-0.3,0.5-0.5,0.8-0.5h4.6C15.8,13.5,15.8,18.3,15.8,18.3z M17.3,18.3v-4.8h6c0.2,0,0.5,0.2,0.6,0.5
	l1,4.3H17.3z"/>
</svg>
